<svg xmlns="http://www.w3.org/2000/svg" width="512" height="512" viewBox="0 0 512 512" role="img" aria-label="OpenDrive EDU logo">
<defs>

    <linearGradient id="icon_bg" x1="78" y1="54" x2="438" y2="492" gradientUnits="userSpaceOnUse">
        <stop offset="0" stop-color="#20A3FF"/>
        <stop offset="0.42" stop-color="#1766FF"/>
        <stop offset="1" stop-color="#071A55"/>
    </linearGradient>
    <linearGradient id="icon_road" x1="80" y1="215" x2="480" y2="500" gradientUnits="userSpaceOnUse">
        <stop offset="0" stop-color="#0A2D86"/>
        <stop offset="0.55" stop-color="#071A55"/>
        <stop offset="1" stop-color="#020817"/>
    </linearGradient>
    <linearGradient id="icon_arch" x1="170" y1="58" x2="365" y2="270" gradientUnits="userSpaceOnUse">
        <stop offset="0" stop-color="#FFFFFF"/>
        <stop offset="0.65" stop-color="#F2F5F9"/>
        <stop offset="1" stop-color="#D1D5DB"/>
    </linearGradient>
    <linearGradient id="icon_badge" x1="0" y1="0" x2="1" y2="1">
        <stop offset="0" stop-color="#3D9CFF"/>
        <stop offset="1" stop-color="#1766FF"/>
    </linearGradient>
    <radialGradient id="icon_horizon" cx="50%" cy="50%" r="60%">
        <stop offset="0" stop-color="#FFFFFF" stop-opacity="0.95"/>
        <stop offset="0.4" stop-color="#3D9CFF" stop-opacity="0.65"/>
        <stop offset="1" stop-color="#1766FF" stop-opacity="0"/>
    </radialGradient>
    <filter id="icon_softShadow" x="-25%" y="-25%" width="150%" height="150%">
        <feDropShadow dx="0" dy="14" stdDeviation="16" flood-color="#0A1328" flood-opacity="0.22"/>
    </filter>
    
</defs>
<g transform="translate(0,0) scale(1.0)"><rect x="30" y="30" width="452" height="452" rx="82" fill="url(#icon_bg)"/><path d="M390 30h10c45 0 82 37 82 82v288c0 45-37 82-82 82h-90c44-75 76-168 80-452Z" fill="#001B61" opacity="0.18"/><circle cx="258" cy="225" r="88" fill="url(#icon_horizon)" opacity="0.95"/>
    <path fill-rule="evenodd" d="M144 266V141c0-58 47-105 105-105h51c58 0 105 47 105 105v125h-70V143c0-20-16-36-36-36h-49c-20 0-36 16-36 36v123h-70Z" fill="url(#icon_arch)"/>
    
    <g opacity="0.85" stroke="#FFFFFF" stroke-width="4" stroke-linecap="round">
        <path d="M214 222h92" opacity="0.55"/>
        <path d="M260 176v45" opacity="0.55"/>
        <path d="M229 190l23 30" opacity="0.38"/>
        <path d="M292 190l-23 30" opacity="0.38"/>
        <path d="M206 202l42 20" opacity="0.28"/>
        <path d="M314 202l-42 20" opacity="0.28"/>
    </g>
    
    <path d="M38 433C142 326 258 258 482 226v256H78c-18 0-33-11-40-49Z" fill="url(#icon_road)"/>
    <path d="M31 390C146 300 281 242 482 218v38C274 281 150 333 55 418Z" fill="#FFFFFF"/>
    <path d="M170 482C247 378 353 307 482 272v210H170Z" fill="#06164B" opacity="0.62"/>
    <path d="M96 482C168 381 273 314 482 260v26C290 342 206 403 147 482Z" fill="#FFFFFF" opacity="0.96"/>
    <g fill="#FFFFFF">
        <path d="M263 410l27-12 16 8-26 15Z" opacity="0.98"/>
        <path d="M314 370l24-9 13 7-23 11Z" opacity="0.94"/>
        <path d="M359 337l20-7 10 6-20 8Z" opacity="0.9"/>
        <path d="M398 310l17-5 8 4-16 6Z" opacity="0.82"/>
    </g>
    </g></svg>
